<svg id="Layer_1" data-name="Layer 1" xmlns="http://www.w3.org/2000/svg" viewBox="0 0 260 45"><defs><style>.cls-1{fill:#fff;}</style></defs><path class="cls-1" d="M0,.92H6V14.51H21.53V.92h6V35.08h-6V19.68H6v15.4H0Z"/><path class="cls-1" d="M30.14,10.35h6l6.46,18.47h.1L49,10.35h5.69L45,36.42c-.44,1.12-.88,2.19-1.31,3.21a11.48,11.48,0,0,1-1.58,2.7,6.85,6.85,0,0,1-2.32,1.87,8,8,0,0,1-3.54.69,24.92,24.92,0,0,1-3.78-.28V40l1.29.22a6.73,6.73,0,0,0,1.29.12,4.41,4.41,0,0,0,1.58-.24,2.59,2.59,0,0,0,1-.7,4.28,4.28,0,0,0,.69-1.07,11.26,11.26,0,0,0,.53-1.44L39.52,35Z"/><path class="cls-1" d="M57.13,10.35H62.3V13.7h.09a6.76,6.76,0,0,1,3.21-3.09,10.65,10.65,0,0,1,4.45-.93,11.74,11.74,0,0,1,5.09,1,10,10,0,0,1,3.62,2.82,12.36,12.36,0,0,1,2.15,4.18,17.75,17.75,0,0,1,.72,5.12A18.22,18.22,0,0,1,81,27.67a12.57,12.57,0,0,1-2,4.14A9.55,9.55,0,0,1,71,35.75a13.9,13.9,0,0,1-2.4-.21,10.11,10.11,0,0,1-2.29-.7,8.62,8.62,0,0,1-2-1.22,6.6,6.6,0,0,1-1.55-1.74h-.1V44.22H57.13Zm19,12.39a12.13,12.13,0,0,0-.43-3.25,8.89,8.89,0,0,0-1.29-2.8,6.64,6.64,0,0,0-2.15-2,5.9,5.9,0,0,0-3-.74,6,6,0,0,0-5.19,2.4,10.49,10.49,0,0,0-1.75,6.36,12.44,12.44,0,0,0,.46,3.47A7.71,7.71,0,0,0,64.21,29a6.94,6.94,0,0,0,2.18,1.82,6.25,6.25,0,0,0,2.94.67,6.11,6.11,0,0,0,3.16-.77,6.73,6.73,0,0,0,2.13-2,8.27,8.27,0,0,0,1.19-2.78A14.1,14.1,0,0,0,76.17,22.74Z"/><path class="cls-1" d="M89.76,24.13a9.53,9.53,0,0,0,.41,2.77,6.74,6.74,0,0,0,1.22,2.35,5.83,5.83,0,0,0,2,1.6,6.78,6.78,0,0,0,3,.6,6.5,6.5,0,0,0,3.85-1,6.15,6.15,0,0,0,2.18-3.09h5.17a10.36,10.36,0,0,1-4,6.25,11,11,0,0,1-3.33,1.62,14.2,14.2,0,0,1-9-.4,10.7,10.7,0,0,1-3.8-2.68A11.38,11.38,0,0,1,85.09,28a16.87,16.87,0,0,1-.79-5.26,14.87,14.87,0,0,1,.84-5,12.7,12.7,0,0,1,2.4-4.16,11.26,11.26,0,0,1,3.75-2.85,11.44,11.44,0,0,1,5-1.05,11,11,0,0,1,5.24,1.22,11.51,11.51,0,0,1,3.85,3.23,13.08,13.08,0,0,1,2.22,4.61,14.31,14.31,0,0,1,.36,5.39Zm12.73-3.59a9.17,9.17,0,0,0-.55-2.49A6.67,6.67,0,0,0,100.69,16a6.13,6.13,0,0,0-1.91-1.44A5.74,5.74,0,0,0,96.27,14a6.47,6.47,0,0,0-2.61.51,5.91,5.91,0,0,0-2,1.38A6.82,6.82,0,0,0,90.31,18a7.14,7.14,0,0,0-.55,2.59Z"/><path class="cls-1" d="M135.93,11.78a11.72,11.72,0,0,0-1.05-2.73,7.8,7.8,0,0,0-1.72-2.15,7.69,7.69,0,0,0-2.47-1.41,9.86,9.86,0,0,0-3.27-.5,9.55,9.55,0,0,0-4.72,1.1A9.22,9.22,0,0,0,119.47,9a13.25,13.25,0,0,0-1.84,4.19,19.38,19.38,0,0,0,0,9.57A13.2,13.2,0,0,0,119.47,27a9.34,9.34,0,0,0,3.23,3,9.66,9.66,0,0,0,4.72,1.1,8.38,8.38,0,0,0,3.54-.7,8,8,0,0,0,2.63-1.91,8.9,8.9,0,0,0,1.72-2.85,13.09,13.09,0,0,0,.81-3.49H142a16.25,16.25,0,0,1-1.31,5.6,13.71,13.71,0,0,1-3,4.37,13.48,13.48,0,0,1-4.5,2.85,15.56,15.56,0,0,1-5.69,1,16.1,16.1,0,0,1-6.87-1.41,15,15,0,0,1-5.14-3.86,17,17,0,0,1-3.23-5.69A21.09,21.09,0,0,1,111.05,18a21,21,0,0,1,1.13-6.89,17,17,0,0,1,3.23-5.69,15.29,15.29,0,0,1,5.14-3.88A16,16,0,0,1,127.42.11a18,18,0,0,1,5.4.79,14,14,0,0,1,4.48,2.29,12.1,12.1,0,0,1,3.13,3.66,12.7,12.7,0,0,1,1.48,4.93Z"/><path class="cls-1" d="M166.41,29.58a3,3,0,0,0,.26,1.44,1.13,1.13,0,0,0,1,.43h.58a3.18,3.18,0,0,0,.76-.1v3.78l-.74.22q-.45.12-.93.21c-.32.07-.64.11-1,.15s-.59,0-.81,0a5.25,5.25,0,0,1-2.78-.67,3.3,3.3,0,0,1-1.43-2.34,9.74,9.74,0,0,1-4,2.3,16,16,0,0,1-4.57.71,11.3,11.3,0,0,1-3.2-.45A8.28,8.28,0,0,1,146.91,34a6.39,6.39,0,0,1-1.86-2.25,6.84,6.84,0,0,1-.7-3.18,7.31,7.31,0,0,1,.84-3.73,6.17,6.17,0,0,1,2.2-2.25,9.78,9.78,0,0,1,3.06-1.17,33.78,33.78,0,0,1,3.42-.55,25.75,25.75,0,0,1,2.83-.41,13.52,13.52,0,0,0,2.37-.41,3.61,3.61,0,0,0,1.62-.88,2.44,2.44,0,0,0,.6-1.8,2.83,2.83,0,0,0-.5-1.72,3.41,3.41,0,0,0-1.24-1,5.43,5.43,0,0,0-1.66-.48,13.11,13.11,0,0,0-1.72-.12,6.84,6.84,0,0,0-3.78,1,3.71,3.71,0,0,0-1.67,3h-5.46a8.3,8.3,0,0,1,1.15-4A7.93,7.93,0,0,1,149,11.4a10.56,10.56,0,0,1,3.52-1.34,20.52,20.52,0,0,1,4-.38,16.56,16.56,0,0,1,3.58.38,10.45,10.45,0,0,1,3.19,1.24,6.92,6.92,0,0,1,2.27,2.23,6.14,6.14,0,0,1,.86,3.32ZM161,22.69a6.63,6.63,0,0,1-3.07,1c-1.21.11-2.42.28-3.63.5a13.28,13.28,0,0,0-1.68.41,5.19,5.19,0,0,0-1.43.72,3.06,3.06,0,0,0-1,1.2,4.05,4.05,0,0,0-.36,1.79,2.27,2.27,0,0,0,.52,1.53,3.8,3.8,0,0,0,1.27,1,5.74,5.74,0,0,0,1.63.5,9.63,9.63,0,0,0,1.6.15,8.8,8.8,0,0,0,2-.24,6.3,6.3,0,0,0,2-.82,5,5,0,0,0,1.55-1.46,3.62,3.62,0,0,0,.63-2.17Z"/><path class="cls-1" d="M172.2,10.35h5.17V13.7h.09a6.76,6.76,0,0,1,3.21-3.09,10.65,10.65,0,0,1,4.45-.93,11.74,11.74,0,0,1,5.09,1,9.92,9.92,0,0,1,3.62,2.82A12.36,12.36,0,0,1,196,17.71a17.75,17.75,0,0,1,.72,5.12,18.22,18.22,0,0,1-.65,4.84,12.57,12.57,0,0,1-2,4.14,10,10,0,0,1-3.32,2.87A9.87,9.87,0,0,1,186,35.75a13.7,13.7,0,0,1-2.39-.21,10,10,0,0,1-2.3-.7,8.36,8.36,0,0,1-2-1.22,6.64,6.64,0,0,1-1.56-1.74h-.09V44.22H172.2Zm19,12.39a12.13,12.13,0,0,0-.43-3.25,8.47,8.47,0,0,0-1.29-2.8,6.64,6.64,0,0,0-2.15-2,5.9,5.9,0,0,0-3-.74,6,6,0,0,0-5.19,2.4,10.56,10.56,0,0,0-1.75,6.36,12.82,12.82,0,0,0,.46,3.47A7.87,7.87,0,0,0,179.28,29a6.94,6.94,0,0,0,2.18,1.82,6.25,6.25,0,0,0,2.94.67,6.09,6.09,0,0,0,3.16-.77,6.73,6.73,0,0,0,2.13-2,7.89,7.89,0,0,0,1.19-2.78A14.1,14.1,0,0,0,191.24,22.74Z"/><path class="cls-1" d="M200.72.92h5.45V6.09h-5.45Zm0,9.43h5.45V35.08h-5.45Z"/><path class="cls-1" d="M209.62,10.35h4.11V2.93h5.46v7.42h4.92v4.06h-4.92V27.62a12.66,12.66,0,0,0,.07,1.48,2.7,2.7,0,0,0,.33,1.06,1.64,1.64,0,0,0,.79.64,4,4,0,0,0,1.44.22L223,31a5,5,0,0,0,1.14-.17V35l-1.77.19a16.91,16.91,0,0,1-1.77.09,12.19,12.19,0,0,1-3.47-.4,4.58,4.58,0,0,1-2-1.2,4.15,4.15,0,0,1-1-2,15.11,15.11,0,0,1-.31-2.72V14.41h-4.11Z"/><path class="cls-1" d="M248.76,29.58A2.88,2.88,0,0,0,249,31a1.12,1.12,0,0,0,1,.43h.57a3.32,3.32,0,0,0,.77-.1v3.78l-.74.22c-.31.08-.62.15-.94.21s-.64.11-1,.15-.59,0-.82,0a5.19,5.19,0,0,1-2.77-.67,3.28,3.28,0,0,1-1.44-2.34,9.71,9.71,0,0,1-4,2.3,16.05,16.05,0,0,1-4.57.71A11.32,11.32,0,0,1,232,35.3a8.33,8.33,0,0,1-2.7-1.34,6.42,6.42,0,0,1-1.87-2.25,7,7,0,0,1-.69-3.18,7.41,7.41,0,0,1,.83-3.73,6.2,6.2,0,0,1,2.21-2.25,9.78,9.78,0,0,1,3.06-1.17,32.9,32.9,0,0,1,3.42-.55,25.93,25.93,0,0,1,2.82-.41,13.19,13.19,0,0,0,2.37-.41,3.59,3.59,0,0,0,1.63-.88,2.44,2.44,0,0,0,.6-1.8,2.77,2.77,0,0,0-.51-1.72,3.33,3.33,0,0,0-1.24-1,5.45,5.45,0,0,0-1.65-.48,13.22,13.22,0,0,0-1.72-.12,6.79,6.79,0,0,0-3.78,1,3.75,3.75,0,0,0-1.68,3h-5.45a8.3,8.3,0,0,1,1.14-4,8.06,8.06,0,0,1,2.57-2.53,10.42,10.42,0,0,1,3.51-1.34,20.6,20.6,0,0,1,4-.38,16.65,16.65,0,0,1,3.59.38,10.39,10.39,0,0,1,3.18,1.24,6.92,6.92,0,0,1,2.27,2.23,6.06,6.06,0,0,1,.87,3.32Zm-5.46-6.89a6.63,6.63,0,0,1-3.06,1c-1.21.11-2.43.28-3.64.5a13.13,13.13,0,0,0-1.67.41,5.39,5.39,0,0,0-1.44.72,3.15,3.15,0,0,0-1,1.2,4.05,4.05,0,0,0-.36,1.79,2.28,2.28,0,0,0,.53,1.53,3.71,3.71,0,0,0,1.27,1,5.57,5.57,0,0,0,1.62.5,9.74,9.74,0,0,0,1.61.15,8.87,8.87,0,0,0,2-.24,6.34,6.34,0,0,0,2-.82,5.06,5.06,0,0,0,1.56-1.46,3.68,3.68,0,0,0,.62-2.17Z"/><path class="cls-1" d="M254.55.92H260V35.08h-5.45Z"/></svg>