<svg id="Layer_1" data-name="Layer 1" xmlns="http://www.w3.org/2000/svg" viewBox="0 0 225 39"><defs><style>.cls-1{fill:#fff;}</style></defs><path class="cls-1" d="M0,.83H5.18V12.59H18.63V.83h5.18V30.39H18.63V17.06H5.18V30.39H0Z"/><path class="cls-1" d="M26.09,9h5.17l5.59,16h.08L42.36,9h4.93L39,31.55c-.38,1-.76,1.89-1.14,2.77a9.52,9.52,0,0,1-1.36,2.34,5.9,5.9,0,0,1-2,1.62,6.83,6.83,0,0,1-3.06.6,21,21,0,0,1-3.28-.25v-4l1.12.19a5.83,5.83,0,0,0,1.12.1,3.85,3.85,0,0,0,1.37-.2,2.34,2.34,0,0,0,.89-.6,4.37,4.37,0,0,0,.6-.93A10.47,10.47,0,0,0,33.66,32l.54-1.65Z"/><path class="cls-1" d="M49.44,9h4.47v2.9H54a5.88,5.88,0,0,1,2.78-2.67,9.16,9.16,0,0,1,3.85-.81A10.3,10.3,0,0,1,65,9.29a8.69,8.69,0,0,1,3.12,2.45A10.64,10.64,0,0,1,70,15.36a15.5,15.5,0,0,1,.62,4.43A15.73,15.73,0,0,1,70.08,24a10.78,10.78,0,0,1-1.7,3.58A8.45,8.45,0,0,1,65.5,30a8.56,8.56,0,0,1-4.1.93,11.15,11.15,0,0,1-2.07-.19,8.4,8.4,0,0,1-2-.6,7.46,7.46,0,0,1-1.76-1.05,5.88,5.88,0,0,1-1.35-1.51h-.08V38.3H49.44ZM65.92,19.71a11,11,0,0,0-.37-2.82,7.8,7.8,0,0,0-1.12-2.42,5.85,5.85,0,0,0-1.87-1.7A5,5,0,0,0,60,12.13a5.22,5.22,0,0,0-4.5,2.07A9.2,9.2,0,0,0,54,19.71a10.72,10.72,0,0,0,.4,3,6.64,6.64,0,0,0,1.18,2.38,5.79,5.79,0,0,0,1.88,1.57,5.94,5.94,0,0,0,5.28-.08,5.71,5.71,0,0,0,1.84-1.72,7,7,0,0,0,1-2.4A12.6,12.6,0,0,0,65.92,19.71Z"/><path class="cls-1" d="M77.68,20.91a8,8,0,0,0,.35,2.4,5.85,5.85,0,0,0,1,2,5.23,5.23,0,0,0,1.78,1.39,6,6,0,0,0,2.57.51,5.66,5.66,0,0,0,3.34-.89,5.22,5.22,0,0,0,1.88-2.67h4.47a8.83,8.83,0,0,1-3.48,5.41,9.24,9.24,0,0,1-2.87,1.4,11.58,11.58,0,0,1-3.34.48A11.38,11.38,0,0,1,79,30.14a9.14,9.14,0,0,1-3.29-2.32,9.69,9.69,0,0,1-2-3.56A14.33,14.33,0,0,1,73,19.71a13,13,0,0,1,.72-4.33,10.87,10.87,0,0,1,2.07-3.6A9.68,9.68,0,0,1,83.31,8.4a9.64,9.64,0,0,1,4.53,1.06,10,10,0,0,1,3.34,2.79,11.42,11.42,0,0,1,1.92,4,12.32,12.32,0,0,1,.31,4.66Zm11-3.11a7.21,7.21,0,0,0-.48-2.15,5.77,5.77,0,0,0-1.07-1.8,5.27,5.27,0,0,0-1.66-1.24,4.84,4.84,0,0,0-2.17-.48,5.69,5.69,0,0,0-2.26.43,5.09,5.09,0,0,0-1.74,1.21,6,6,0,0,0-1.16,1.8,6.09,6.09,0,0,0-.47,2.23Z"/><path class="cls-1" d="M117.63,10.22a10.42,10.42,0,0,0-.91-2.36A6.54,6.54,0,0,0,115.23,6a6.77,6.77,0,0,0-2.13-1.22,8.44,8.44,0,0,0-2.84-.43,8.19,8.19,0,0,0-4.07,1,8,8,0,0,0-2.8,2.54,11.35,11.35,0,0,0-1.59,3.63,16.74,16.74,0,0,0,0,8.28,11.3,11.3,0,0,0,1.59,3.62,8.08,8.08,0,0,0,2.8,2.55,8.3,8.3,0,0,0,4.07.95,7.41,7.41,0,0,0,3.07-.6,6.7,6.7,0,0,0,2.27-1.66,7.67,7.67,0,0,0,1.5-2.46,11.79,11.79,0,0,0,.7-3h5A14,14,0,0,1,121.71,24a11.59,11.59,0,0,1-6.52,6.25,13.47,13.47,0,0,1-4.93.87,13.83,13.83,0,0,1-5.94-1.22,13.05,13.05,0,0,1-4.45-3.33,14.83,14.83,0,0,1-2.79-4.93,18.24,18.24,0,0,1-1-6,18.14,18.14,0,0,1,1-6,14.89,14.89,0,0,1,2.79-4.92,13.39,13.39,0,0,1,4.45-3.36A13.84,13.84,0,0,1,110.26.12a15.81,15.81,0,0,1,4.68.68,12.18,12.18,0,0,1,3.88,2A10.46,10.46,0,0,1,121.53,6a10.89,10.89,0,0,1,1.28,4.26Z"/><path class="cls-1" d="M144,25.63a2.41,2.41,0,0,0,.23,1.24,1,1,0,0,0,.89.37h.49a2.83,2.83,0,0,0,.67-.08v3.27l-.64.19q-.41.11-.81.18a8.38,8.38,0,0,1-.83.13,6.54,6.54,0,0,1-.7,0,4.55,4.55,0,0,1-2.41-.58,2.89,2.89,0,0,1-1.24-2,8.42,8.42,0,0,1-3.46,2,13.69,13.69,0,0,1-3.95.62,9.71,9.71,0,0,1-2.77-.39,7.32,7.32,0,0,1-2.34-1.16,5.51,5.51,0,0,1-1.62-2,6,6,0,0,1-.6-2.75,6.28,6.28,0,0,1,.73-3.23,5.31,5.31,0,0,1,1.9-1.95,8.43,8.43,0,0,1,2.65-1,29.9,29.9,0,0,1,3-.48,23.49,23.49,0,0,1,2.44-.35,11.92,11.92,0,0,0,2.05-.35,3.08,3.08,0,0,0,1.41-.77,2.07,2.07,0,0,0,.52-1.55,2.4,2.4,0,0,0-.44-1.49,2.78,2.78,0,0,0-1.07-.89,4.66,4.66,0,0,0-1.43-.42,11.29,11.29,0,0,0-1.49-.1,5.92,5.92,0,0,0-3.27.83,3.22,3.22,0,0,0-1.45,2.56h-4.72a7,7,0,0,1,1-3.43,7,7,0,0,1,2.22-2.2,9.24,9.24,0,0,1,3-1.16,18.17,18.17,0,0,1,3.48-.33,14.64,14.64,0,0,1,3.1.33,9.08,9.08,0,0,1,2.76,1.08,5.93,5.93,0,0,1,2,1.93,5.22,5.22,0,0,1,.75,2.87Zm-4.72-6a5.65,5.65,0,0,1-2.65.84c-1,.1-2.1.25-3.15.44a10.21,10.21,0,0,0-1.45.35,4.37,4.37,0,0,0-1.24.62,2.73,2.73,0,0,0-.85,1,3.48,3.48,0,0,0-.31,1.55,1.91,1.91,0,0,0,.46,1.32,3.22,3.22,0,0,0,1.09.85,4.94,4.94,0,0,0,1.41.44,9,9,0,0,0,1.39.12,8.24,8.24,0,0,0,1.7-.2,5.69,5.69,0,0,0,1.71-.71,4.52,4.52,0,0,0,1.35-1.26,3.18,3.18,0,0,0,.54-1.88Z"/><path class="cls-1" d="M149,9h4.47v2.9h.08a5.88,5.88,0,0,1,2.78-2.67,9.2,9.2,0,0,1,3.85-.81,10.3,10.3,0,0,1,4.41.89,8.73,8.73,0,0,1,3.13,2.45,10.62,10.62,0,0,1,1.86,3.62,15.5,15.5,0,0,1,.62,4.43,15.73,15.73,0,0,1-.56,4.18,10.78,10.78,0,0,1-1.7,3.58A8.22,8.22,0,0,1,161,31a11.15,11.15,0,0,1-2.07-.19,8.48,8.48,0,0,1-2-.6,7.46,7.46,0,0,1-1.76-1.05,5.88,5.88,0,0,1-1.35-1.51h-.08V38.3H149ZM165.5,19.71a10.59,10.59,0,0,0-.37-2.82A7.58,7.58,0,0,0,164,14.47a5.93,5.93,0,0,0-1.86-1.7,5.08,5.08,0,0,0-2.57-.64,5.19,5.19,0,0,0-4.49,2.07,9.13,9.13,0,0,0-1.52,5.51,11.1,11.1,0,0,0,.4,3,6.64,6.64,0,0,0,1.18,2.38A5.79,5.79,0,0,0,157,26.66a5.33,5.33,0,0,0,2.55.58,5.26,5.26,0,0,0,2.73-.66,5.61,5.61,0,0,0,1.84-1.72,6.84,6.84,0,0,0,1-2.4A12,12,0,0,0,165.5,19.71Z"/><path class="cls-1" d="M173.7.83h4.72V5.3H173.7Zm0,8.15h4.72V30.39H173.7Z"/><path class="cls-1" d="M181.4,9H185V2.56h4.72V9h4.26V12.5h-4.26V23.93a11.57,11.57,0,0,0,.06,1.28,2.17,2.17,0,0,0,.29.91,1.34,1.34,0,0,0,.69.56,3.19,3.19,0,0,0,1.24.19l1,0a4.24,4.24,0,0,0,1-.15v3.65l-1.53.16a12.59,12.59,0,0,1-1.53.09,10.23,10.23,0,0,1-3-.36,4,4,0,0,1-1.78-1,3.56,3.56,0,0,1-.87-1.72,13.23,13.23,0,0,1-.27-2.36V12.5H181.4Z"/><path class="cls-1" d="M215.27,25.63a2.41,2.41,0,0,0,.23,1.24,1,1,0,0,0,.89.37h.49a2.83,2.83,0,0,0,.67-.08v3.27l-.64.19q-.41.11-.81.18a8.38,8.38,0,0,1-.83.13,6.54,6.54,0,0,1-.7,0,4.55,4.55,0,0,1-2.41-.58,2.89,2.89,0,0,1-1.24-2,8.42,8.42,0,0,1-3.46,2,13.69,13.69,0,0,1-4,.62,9.71,9.71,0,0,1-2.77-.39,7.32,7.32,0,0,1-2.34-1.16,5.51,5.51,0,0,1-1.62-2,6,6,0,0,1-.6-2.75,6.28,6.28,0,0,1,.73-3.23,5.31,5.31,0,0,1,1.9-1.95,8.43,8.43,0,0,1,2.65-1,29.9,29.9,0,0,1,3-.48,23.49,23.49,0,0,1,2.44-.35,11.92,11.92,0,0,0,2-.35,3.08,3.08,0,0,0,1.41-.77,2.07,2.07,0,0,0,.52-1.55,2.4,2.4,0,0,0-.44-1.49,2.78,2.78,0,0,0-1.07-.89,4.66,4.66,0,0,0-1.43-.42,11.29,11.29,0,0,0-1.49-.1,5.92,5.92,0,0,0-3.27.83,3.22,3.22,0,0,0-1.45,2.56H197a7,7,0,0,1,1-3.43,7,7,0,0,1,2.22-2.2,9.24,9.24,0,0,1,3-1.16,18.17,18.17,0,0,1,3.48-.33,14.64,14.64,0,0,1,3.1.33,9.08,9.08,0,0,1,2.76,1.08,5.93,5.93,0,0,1,2,1.93,5.22,5.22,0,0,1,.75,2.87Zm-4.72-6a5.65,5.65,0,0,1-2.65.84c-1.05.1-2.1.25-3.15.44a10.21,10.21,0,0,0-1.45.35,4.37,4.37,0,0,0-1.24.62,2.73,2.73,0,0,0-.85,1,3.48,3.48,0,0,0-.31,1.55,1.91,1.91,0,0,0,.46,1.32,3.22,3.22,0,0,0,1.09.85,4.94,4.94,0,0,0,1.41.44,9,9,0,0,0,1.39.12A8.24,8.24,0,0,0,207,27a5.69,5.69,0,0,0,1.71-.71A4.52,4.52,0,0,0,210,25.07a3.18,3.18,0,0,0,.54-1.88Z"/><path class="cls-1" d="M220.28.83H225V30.39h-4.72Z"/></svg>