<svg id="Layer_1" data-name="Layer 1" xmlns="http://www.w3.org/2000/svg" viewBox="0 0 155 28"><defs><style>.cls-1{fill:#efefef;}</style></defs><path class="cls-1" d="M31.79,2.08a2,2,0,1,1-2-2,2,2,0,0,1,2,2m4,0a2,2,0,1,0-2,2,2,2,0,0,0,2-2m4,0a2,2,0,1,0-2,2,2,2,0,0,0,2-2m-8,23.84a2,2,0,1,0-2,2,2,2,0,0,0,2-2m4,0a2,2,0,1,0-2,2,2,2,0,0,0,2-2m4,0a2,2,0,1,0-2,2,2,2,0,0,0,2-2m4-6a2,2,0,1,0-2,2,2,2,0,0,0,2-2M43.72,8a2,2,0,1,0-2,2,2,2,0,0,0,2-2M27.82,8a2,2,0,1,0-2,2,2,2,0,0,0,2-2m0,6a2,2,0,1,0-2,2,2,2,0,0,0,2-2m15.9,0a2,2,0,1,0-2,2,2,2,0,0,0,2-2m-15.9,6a2,2,0,1,0-2,2,2,2,0,0,0,2-2M143.08,2.08a2,2,0,1,0-2,2,2,2,0,0,0,2-2m4,0a2,2,0,1,0-2,2,2,2,0,0,0,2-2m4,0a2,2,0,1,0-2,2,2,2,0,0,0,2-2m-7.95,23.84a2,2,0,1,0-2,2,2,2,0,0,0,2-2m4,0a2,2,0,1,0-2,2,2,2,0,0,0,2-2m4,0a2,2,0,1,0-2,2,2,2,0,0,0,2-2m4-6a2,2,0,1,0-2,2,2,2,0,0,0,2-2m0-6a2,2,0,1,0-2,2,2,2,0,0,0,2-2m-4,0a2,2,0,1,0-2,2,2,2,0,0,0,2-2m-4,0a2,2,0,1,0-2,2,2,2,0,0,0,2-2M155,2.08a2,2,0,1,0-2,2,2,2,0,0,0,2-2M139.1,8a2,2,0,1,0-2,2,2,2,0,0,0,2-2m0,6a2,2,0,1,0-2,2,2,2,0,0,0,2-2m0,6a2,2,0,1,0-2,2,2,2,0,0,0,2-2M75.51,2.08a2,2,0,1,0-2,2,2,2,0,0,0,2-2m0,6a2,2,0,1,0-2,2,2,2,0,0,0,2-2m0,6a2,2,0,1,0-2,2,2,2,0,0,0,2-2m4,0a2,2,0,1,0-2,2,2,2,0,0,0,2-2m4,0a2,2,0,1,0-2,2,2,2,0,0,0,2-2m4,0a2,2,0,1,0-2,2,2,2,0,0,0,2-2M75.51,20a2,2,0,1,0-2,2,2,2,0,0,0,2-2m0,6a2,2,0,1,0-2,2,2,2,0,0,0,2-2M91.41,2.08a2,2,0,1,0-2,2,2,2,0,0,0,2-2m0,6a2,2,0,1,0-2,2,2,2,0,0,0,2-2m0,6a2,2,0,1,0-2,2,2,2,0,0,0,2-2m0,6a2,2,0,1,0-2,2,2,2,0,0,0,2-2m0,6a2,2,0,1,0-2,2,2,2,0,0,0,2-2M8,8a2,2,0,1,0-2,2A2,2,0,0,0,8,8m4,6a2,2,0,1,0-2,2,2,2,0,0,0,2-2m4,6a2,2,0,1,0-2,2,2,2,0,0,0,2-2m4-17.88a2,2,0,1,0-2,2,2,2,0,0,0,2-2m0,6a2,2,0,1,0-2,2,2,2,0,0,0,2-2m0,6a2,2,0,1,0-2,2,2,2,0,0,0,2-2m0,6a2,2,0,1,0-2,2,2,2,0,0,0,2-2m0,6a2,2,0,1,0-2,2,2,2,0,0,0,2-2M4,2.08a2,2,0,1,0-2,2,2,2,0,0,0,2-2M4,8a2,2,0,1,0-2,2A2,2,0,0,0,4,8m0,6a2,2,0,1,0-2,2,2,2,0,0,0,2-2m0,6a2,2,0,1,0-2,2,2,2,0,0,0,2-2m0,6a2,2,0,1,0-2,2,2,2,0,0,0,2-2M119.23,8a2,2,0,1,0-2,2,2,2,0,0,0,2-2m4,6a2,2,0,1,0-2,2,2,2,0,0,0,2-2m4,6a2,2,0,1,0-2,2,2,2,0,0,0,2-2m4-17.88a2,2,0,1,0-2,2,2,2,0,0,0,2-2m0,6a2,2,0,1,0-2,2,2,2,0,0,0,2-2m0,6a2,2,0,1,0-2,2,2,2,0,0,0,2-2m0,6a2,2,0,1,0-2,2,2,2,0,0,0,2-2m0,6a2,2,0,1,0-2,2,2,2,0,0,0,2-2M115.26,2.08a2,2,0,1,0-2,2,2,2,0,0,0,2-2m0,6a2,2,0,1,0-2,2,2,2,0,0,0,2-2m0,6a2,2,0,1,0-2,2,2,2,0,0,0,2-2m0,6a2,2,0,1,0-2,2,2,2,0,0,0,2-2m0,6a2,2,0,1,0-2,2,2,2,0,0,0,2-2m-15.9,0a2,2,0,1,0-2,2,2,2,0,0,0,2-2m8,0a2,2,0,1,0-2,2,2,2,0,0,0,2-2m-8-23.84a2,2,0,1,0-2,2,2,2,0,0,0,2-2m8,0a2,2,0,1,0-2,2,2,2,0,0,0,2-2m-4,0a2,2,0,1,0-2,2,2,2,0,0,0,2-2m0,6a2,2,0,1,0-2,2,2,2,0,0,0,2-2m0,6a2,2,0,1,0-2,2,2,2,0,0,0,2-2m0,6a2,2,0,1,0-2,2,2,2,0,0,0,2-2m0,6a2,2,0,1,0-2,2,2,2,0,0,0,2-2M55.64,2.08a2,2,0,1,0-2,2,2,2,0,0,0,2-2m8,0a2,2,0,1,0-2,2,2,2,0,0,0,2-2m4,0a2,2,0,1,0-2,2,2,2,0,0,0,2-2m-15.89,0a2,2,0,1,0-2,2,2,2,0,0,0,2-2m7.95,0a2,2,0,1,0-2,2,2,2,0,0,0,2-2m0,6a2,2,0,1,0-2,2,2,2,0,0,0,2-2m0,6a2,2,0,1,0-2,2,2,2,0,0,0,2-2m0,6a2,2,0,1,0-2,2,2,2,0,0,0,2-2m0,6a2,2,0,1,0-2,2,2,2,0,0,0,2-2"/></svg>